<?xml version="1.0" standalone="no"?>
<!DOCTYPE svg PUBLIC "-//W3C//DTD SVG 20010904//EN"
 "http://www.w3.org/TR/2001/REC-SVG-20010904/DTD/svg10.dtd">
<svg version="1.0" xmlns="http://www.w3.org/2000/svg"
 width="492.000000pt" height="492.000000pt" viewBox="0 0 492.000000 492.000000"
 preserveAspectRatio="xMidYMid meet">

<g transform="translate(0.000000,492.000000) scale(0.100000,-0.100000)"
fill="#000000" stroke="none">
<path d="M2270 4399 c-461 -43 -853 -230 -1191 -570 -472 -474 -659 -1104
-528 -1779 87 -446 349 -857 739 -1159 244 -188 508 -305 826 -362 172 -32
525 -32 697 -1 444 81 811 290 1119 636 258 289 412 622 469 1011 19 130 16
464 -5 590 -46 270 -135 513 -262 713 -113 177 -294 379 -459 511 -392 315
-882 458 -1405 410z m324 -930 c77 -28 148 -96 188 -177 l33 -67 0 -420 c0
-415 0 -421 -23 -477 -31 -76 -99 -150 -170 -185 -50 -25 -68 -28 -152 -28
-84 0 -102 3 -151 28 -69 33 -132 99 -167 175 l-27 57 0 425 0 425 33 67 c39
80 111 148 185 177 71 27 179 28 251 0z m-734 -1056 c0 -57 29 -162 63 -228
18 -35 63 -92 107 -136 120 -122 266 -182 440 -182 109 0 174 15 280 65 109
52 220 159 268 258 36 75 62 167 62 222 l0 38 101 0 101 0 -7 -62 c-36 -335
-273 -604 -610 -694 l-80 -21 -3 -186 -2 -187 -115 0 -115 0 0 188 0 188 -74
18 c-230 54 -448 234 -546 450 -34 74 -56 158 -66 244 l-7 62 102 0 101 0 0
-37z" style="fill:rgb(82,112,255)"/>
</g>
</svg>
