<?xml version="1.0" standalone="no"?>
<!DOCTYPE svg PUBLIC "-//W3C//DTD SVG 20010904//EN"
 "http://www.w3.org/TR/2001/REC-SVG-20010904/DTD/svg10.dtd">
<svg version="1.0" xmlns="http://www.w3.org/2000/svg"
 width="227.000000pt" height="200.000000pt" viewBox="0 0 227.000000 200.000000"
 preserveAspectRatio="xMidYMid meet">

<g transform="translate(0.000000,247.000000) scale(0.100000,-0.100000)"
fill="#000000" stroke="none">
<path d="M1015 2353 c-116 -42 -206 -120 -250 -216 -96 -210 -13 -443 193
-545 73 -35 80 -37 177 -37 97 0 104 2 177 37 121 60 196 157 224 289 38 182
-51 361 -221 445 -64 32 -85 37 -162 41 -67 3 -100 -1 -138 -14z"/>
<path d="M824 1540 c-25 -10 -100 -93 -121 -134 -27 -52 -52 -135 -59 -196
l-6 -59 41 -17 c75 -30 129 -115 147 -232 5 -35 3 -47 -14 -65 -11 -12 -22
-31 -24 -42 -5 -28 -42 -26 -46 3 -3 20 7 27 32 23 5 -1 17 6 28 16 16 15 18
25 13 63 -38 249 -246 313 -342 104 -13 -29 -28 -78 -33 -110 l-9 -59 3 61 c2
33 14 83 26 112 22 51 97 132 123 132 9 0 17 24 25 74 14 94 44 172 89 237 40
59 32 59 -55 0 -177 -120 -320 -354 -348 -569 -6 -47 -4 -56 22 -93 101 -146
320 -264 565 -304 121 -19 374 -19 502 0 234 35 428 133 547 276 57 69 59 80
30 195 -51 200 -179 382 -347 494 -41 28 -79 50 -84 50 -5 0 7 -21 27 -47 42
-55 65 -100 88 -169 14 -42 22 -52 52 -63 68 -24 97 -120 53 -175 -24 -31 -69
-56 -99 -56 -36 0 -90 31 -105 61 -24 45 -19 103 10 138 14 16 35 33 46 36 26
9 21 34 -26 131 -34 69 -142 194 -169 194 -6 0 -72 -106 -145 -236 l-134 -236
-53 99 c-30 54 -86 160 -126 235 -73 138 -81 146 -124 128z m568 -617 c3 -37
4 -38 46 -41 39 -3 42 -5 42 -32 0 -27 -3 -29 -42 -32 -43 -3 -43 -3 -46 -45
-3 -40 -5 -43 -32 -43 -27 0 -29 3 -32 43 -3 42 -3 42 -45 45 -40 3 -43 5 -43
32 0 27 3 29 43 32 41 3 42 4 45 41 3 33 6 37 32 37 26 0 29 -4 32 -37z m-881
-115 c11 -17 -15 -42 -35 -35 -9 4 -16 18 -16 31 0 20 4 24 22 21 12 -3 25
-10 29 -17z"/>
<path d="M1596 1177 c-57 -57 -23 -147 54 -147 48 0 80 33 80 82 0 47 -26 77
-72 84 -30 5 -41 2 -62 -19z"/>
</g>
</svg>
