<?xml version="1.0" standalone="no"?>
<!DOCTYPE svg PUBLIC "-//W3C//DTD SVG 20010904//EN"
 "http://www.w3.org/TR/2001/REC-SVG-20010904/DTD/svg10.dtd">
<svg version="1.0" xmlns="http://www.w3.org/2000/svg"
 width="1312.000000pt" height="988.000000pt" viewBox="0 0 1312.000000 988.000000"
 preserveAspectRatio="xMidYMid meet">

<g transform="translate(0.000000,988.000000) scale(0.100000,-0.100000)"
fill="#000000" stroke="none">
<path d="M5320 9186 c-399 -72 -712 -284 -879 -596 -108 -202 -132 -488 -60
-703 46 -136 120 -258 216 -357 l53 -55 -24 -75 c-47 -147 -135 -415 -142
-434 -7 -19 3 -14 381 187 l149 79 101 -31 c178 -55 235 -64 430 -65 137 0
201 4 270 18 396 80 706 304 860 620 67 137 88 233 88 396 1 149 -19 244 -74
369 -69 152 -228 338 -377 440 -126 85 -298 157 -472 197 -92 21 -421 27 -520
10z" style="fill:#00aeef"/>
<path d="M8190 9150 c-451 -37 -839 -288 -1010 -653 -71 -153 -101 -322 -81
-469 30 -227 113 -397 281 -571 254 -265 664 -407 1060 -368 104 11 265 44
330 69 23 9 45 -2 195 -100 257 -165 405 -258 405 -253 0 2 -43 135 -96 294
l-95 291 63 63 c336 338 378 829 103 1212 -48 66 -165 185 -235 237 -173 129
-433 228 -640 243 -157 12 -188 12 -280 5z" style="fill:#00aeef"/>
<path d="M3310 7602 c-198 -52 -356 -238 -417 -495 -28 -115 -23 -317 11 -430
44 -147 99 -241 194 -332 258 -246 629 -144 791 217 61 137 85 328 61 489 -33
218 -161 424 -316 506 -120 64 -206 76 -324 45z"/>
<path d="M10198 7590 c-138 -35 -276 -157 -351 -310 -66 -134 -87 -225 -87
-385 0 -160 21 -251 85 -383 84 -169 229 -288 385 -313 217 -35 423 95 536
338 70 150 95 313 71 475 -39 259 -167 457 -356 547 -65 30 -86 35 -160 38
-47 1 -103 -2 -123 -7z"/>
<path d="M1345 6076 c-145 -69 -206 -219 -155 -381 12 -39 34 -110 50 -160 15
-49 78 -247 140 -440 61 -192 124 -390 140 -440 15 -49 49 -155 75 -235 26
-80 60 -185 75 -235 16 -49 79 -247 140 -440 61 -192 124 -390 140 -440 48
-151 97 -308 113 -355 8 -25 39 -119 67 -210 29 -91 67 -193 86 -227 19 -34
34 -69 34 -77 0 -33 50 -114 94 -153 82 -73 86 -73 642 -73 l494 0 0 -405 0
-405 -293 0 -292 0 -250 -250 -250 -250 1230 0 1230 0 -250 250 -250 250 -292
0 -293 0 0 405 0 405 493 0 c580 0 567 -2 658 89 46 46 61 70 75 116 40 140
-22 292 -146 355 -77 39 -112 40 -1129 40 l-987 0 -38 118 c-47 147 -99 311
-136 427 -15 50 -49 155 -75 235 -26 80 -60 186 -75 235 -16 50 -79 248 -140
440 -61 193 -124 391 -140 440 -16 50 -63 198 -105 330 -42 132 -92 287 -110
345 -185 584 -194 608 -268 661 -64 46 -103 59 -181 59 -54 0 -83 -6 -121 -24z"/>
<path d="M11685 6087 c-111 -44 -168 -113 -200 -243 -53 -215 -200 -817 -221
-904 -58 -243 -101 -419 -249 -1025 -42 -171 -114 -468 -221 -907 l-48 -197
-1006 -3 -1005 -3 -48 -22 c-26 -12 -62 -32 -78 -44 -44 -31 -95 -115 -108
-180 -26 -123 42 -257 162 -321 42 -23 44 -23 560 -26 l517 -3 0 -404 0 -405
-298 0 -297 0 -250 -250 -249 -250 1230 0 1230 0 -246 250 -245 250 -293 0
-292 0 0 405 0 404 518 3 517 3 43 23 c24 13 60 40 80 60 63 63 59 51 177 537
31 127 76 311 100 410 99 406 158 648 191 785 46 189 97 399 183 750 38 157
85 350 105 430 19 80 58 240 86 355 42 169 51 221 47 267 -13 155 -137 269
-292 267 -38 0 -83 -6 -100 -12z"/>
<path d="M3204 6046 c-106 -35 -213 -121 -271 -217 -66 -111 -63 -52 -63
-1345 0 -644 3 -1186 6 -1205 18 -90 93 -208 173 -270 25 -19 82 -55 126 -80
l80 -44 998 -3 997 -2 1 -855 c1 -470 2 -858 3 -862 1 -5 5 -26 10 -48 29
-151 197 -260 348 -225 105 24 198 112 228 215 8 29 10 328 8 1095 l-3 1055
-24 45 c-30 58 -85 116 -136 143 -40 22 -40 22 -955 27 l-915 5 -3 658 c-1
361 2 657 6 657 8 0 117 -62 869 -493 437 -250 409 -237 484 -237 139 0 239
101 239 241 0 51 -36 134 -71 166 -13 11 -148 92 -299 179 -151 86 -489 280
-750 429 l-475 272 -5 184 c-4 151 -9 192 -24 229 -50 117 -134 206 -245 259
-72 34 -82 36 -186 38 -70 1 -125 -3 -151 -11z"/>
<path d="M10136 6039 c-67 -11 -184 -70 -233 -117 -56 -54 -100 -122 -125
-190 -17 -47 -22 -89 -27 -235 l-6 -178 -134 -70 c-74 -38 -429 -218 -790
-401 -361 -182 -673 -341 -693 -354 -130 -82 -146 -274 -30 -375 50 -44 91
-59 163 -59 61 0 68 3 658 302 328 165 641 324 696 353 55 28 108 54 118 58
16 6 17 -29 17 -648 l0 -655 -897 0 c-730 -1 -905 -3 -936 -14 -96 -35 -162
-110 -197 -224 -19 -62 -20 -96 -20 -1111 1 -1133 -2 -1079 56 -1162 56 -81
174 -137 266 -126 134 16 240 113 267 245 8 36 11 331 11 927 l0 874 998 4
997 3 67 22 c127 43 227 128 284 243 56 110 54 61 54 1320 0 1038 -2 1171 -16
1220 -54 182 -204 320 -380 349 -67 11 -99 11 -168 -1z"/>
<path d="M4484 3976 c-48 -21 -76 -68 -76 -128 0 -54 17 -86 66 -122 l27 -21
2302 -3 c1594 -2 2313 0 2339 8 46 13 95 68 104 117 9 50 -27 119 -76 145 -33
17 -123 18 -2345 18 -1918 -1 -2315 -3 -2341 -14z"/>
<path d="M6350 2240 l0 -1340 470 0 470 0 0 1340 0 1340 -470 0 -470 0 0
-1340z"/>
</g>
</svg>
