<?xml version="1.0" standalone="no"?>
<!DOCTYPE svg PUBLIC "-//W3C//DTD SVG 20010904//EN"
 "http://www.w3.org/TR/2001/REC-SVG-20010904/DTD/svg10.dtd">
<svg version="1.0" xmlns="http://www.w3.org/2000/svg"
 width="225.000000pt" height="225.000000pt" viewBox="0 0 225.000000 225.000000"
 preserveAspectRatio="xMidYMid meet">

<g transform="translate(0.000000,225.000000) scale(0.100000,-0.100000)"
fill="#000000" stroke="none">
<path style="fill:red" d="M967 1984 c-111 -20 -226 -67 -326 -134 -403 -270 -510 -806 -241
-1209 161 -241 440 -391 725 -391 285 0 564 150 725 391 127 191 174 410 135
634 -83 475 -542 795 -1018 709z m368 -198 c110 -35 197 -88 280 -171 82 -82
135 -169 172 -280 23 -70 27 -96 27 -210 0 -114 -4 -140 -27 -210 -37 -111
-90 -198 -172 -280 -82 -82 -169 -135 -280 -172 -70 -23 -96 -27 -210 -27
-114 0 -140 4 -210 27 -111 37 -198 90 -280 172 -82 82 -135 169 -172 280 -23
70 -27 96 -27 210 0 114 4 140 27 210 80 243 268 412 522 471 92 21 251 12
350 -20z"/>
<path style="fill:red" d="M802 1468 c-9 -9 -12 -100 -12 -350 0 -323 1 -338 19 -348 27 -14
605 -14 632 0 18 10 19 25 19 348 0 250 -3 341 -12 350 -17 17 -629 17 -646 0z"/>
</g>
</svg>
